<?xml version="1.0" encoding="utf-8"?>
<!-- Generator: Adobe Illustrator 21.0.0, SVG Export Plug-In . SVG Version: 6.00 Build 0)  -->
<svg version="1.1" id="圖層_1" xmlns="http://www.w3.org/2000/svg" xmlns:xlink="http://www.w3.org/1999/xlink" x="0px" y="0px"
	 viewBox="0 0 100 100" enable-background="new 0 0 100 100" xml:space="preserve">
<path fill="#603813" d="M57.4,16.3c4-5.4,9.9-7,16.5-8.3c1.8,1.9,2.3,4.1,0.6,6.7c-5.8,1.2-11.1,1.9-15,6.4c-2.1,2.4-3.8,5.1-5.1,8
	c-0.6,1.4-1.2,2.9-1.6,4.4c-0.4,1.6-0.3,3.5-2.1,3.9c-0.4-3.3,0.7-7.4,1.6-10.5C53.3,23.2,55,19.5,57.4,16.3z"/>
<path fill="#009245" d="M49.5,18.2c-5.5-6.4-14.5-9.6-22.8-8c-0.3,1.7,0.2,3.5,1,5c3.1,6.4,10.1,10.6,17.2,10.3
	c1.5-0.1,3-0.3,4.3,0.2c1.4,0.4,2.6,1.9,2.2,3.3C53,25.4,52,21.2,49.5,18.2z"/>
<path fill="#D96D6D" d="M82,42.5c0-3.5-0.4-6.9-1-10.2c-1.8-1.5-3.8-2.7-6.3-3.6C64.2,24.8,51.5,35,51.5,35S40.7,25.3,29,28.7
	C17.3,32,13.4,44.3,13.4,54s4.3,18.4,11.1,24.7c4.1,3.8,9.2,6.7,14.9,8.5c1,0.1,1.9,0.1,2.9,0.1C64.2,87.3,82,67.3,82,42.5z"/>
<path fill="#FFFFFF" stroke="#FFFFFF" stroke-width="5.703" stroke-linecap="round" stroke-miterlimit="10" d="M25.3,40.8
	c-4,3.2-5.3,11.5-3.8,14.9"/>
<ellipse transform="matrix(0.8199 -0.5725 0.5725 0.8199 -32.775 25.9029)" fill="#FFFFFF" cx="24.8" cy="65" rx="3.3" ry="3.3"/>
<path fill="#C1272D" d="M81,32.3c0.7,3.3,1,6.7,1,10.2c0,24.8-17.8,44.8-39.7,44.8c-1,0-1.9-0.1-2.9-0.1c3.8,1.2,7.8,1.8,12,1.8
	c10.5,0,20-3.9,26.9-10.3S89.5,63.7,89.5,54C89.5,46.4,87.5,37.7,81,32.3z"/>
</svg>
